# xmcd
#
# Track frame offsets:
#	150
#	17310
#	30301
#	44724
#	64041
#	88131
#	101700
#	116807
#	137562
#	155665
#	173679
#	191639
#	211675
#	226747
#	246435
#
# Disc length: 3406 seconds
#
# Revision: 0
# Processed by: cddbd v1.5.2PL0 Copyright (c) Steve Scherf et al.
# Submitted via: dBpowerAMP V4.0
#
DISCID=c40d4c0f
DTITLE=Jill Johnson - The christmas in you
DYEAR=1900
DGENRE=
TTITLE0=Jill Johnsson-The christmas in you
TTITLE1=Jill Johnson-The angels cried
TTITLE2=Jill Johnson-What child is this
TTITLE3=Jill Johnson-Blue december
TTITLE4=Jill Johnson-Merry christmas to you
TTITLE5=Jill Johnson-Blame it on christmas
TTITLE6=Jill Johnson-Winter in july
TTITLE7=Jill Johnson-Have yourself a merry little christmas
TTITLE8=Jill Johnson-First christmas without you
TTITLE9=Jill Johnson-The christmas song
TTITLE10=Jill Johnson-O come all ye faithful
TTITLE11=Jill Johnson-I bring christmas back to you
TTITLE12=Jill Johnson-I want you for christmas
TTITLE13=Jill Johnson-I wish you all a merry christmas
TTITLE14=Jill Johnson-Down to the river to pray
EXTD=
EXTT0=
EXTT1=
EXTT2=
EXTT3=
EXTT4=
EXTT5=
EXTT6=
EXTT7=
EXTT8=
EXTT9=
EXTT10=
EXTT11=
EXTT12=
EXTT13=
EXTT14=
PLAYORDER=
